<svg width="25" height="25" viewBox="0 0 25 25" fill="none" xmlns="http://www.w3.org/2000/svg">
<path d="M12.2729 22.8575C6.78336 22.8575 2.3335 18.4077 2.3335 12.9182C2.3335 7.42863 6.78336 2.97876 12.2729 2.97876C17.7624 2.97876 22.2123 7.42863 22.2123 12.9182C22.2063 18.4047 17.7594 22.8516 12.2729 22.8575ZM8.02579 15.6883C7.89757 15.6883 7.77034 15.7042 7.64511 15.734L7.49602 15.7747L6.90562 16.7856C6.79777 16.9655 6.76315 17.1799 6.80888 17.3846C6.85462 17.5893 6.97724 17.7686 7.15139 17.8854C7.32555 18.0023 7.53794 18.0478 7.74469 18.0126C7.95144 17.9773 8.13675 17.864 8.26234 17.696L8.32397 17.6036L9.10918 16.2409C8.98192 16.0707 8.817 15.9322 8.62732 15.8364C8.43765 15.7405 8.22837 15.6898 8.01585 15.6883H8.02579ZM13.4766 9.5984C13.1673 9.8889 12.9623 10.2731 12.8931 10.6917C12.7823 11.2689 12.8885 11.8667 13.1913 12.3705L16.2129 17.6046C16.318 17.7815 16.4857 17.9126 16.6828 17.9718C16.8799 18.0311 17.0921 18.0142 17.2774 17.9246C17.4621 17.8335 17.6057 17.676 17.6794 17.4837C17.7531 17.2913 17.7515 17.0782 17.6749 16.887L17.6262 16.7876L16.8311 15.405H18.0139C18.221 15.4033 18.4198 15.323 18.5701 15.1804C18.7203 15.0379 18.8109 14.8436 18.8235 14.6368C18.8361 14.4301 18.7698 14.2262 18.638 14.0664C18.5062 13.9066 18.3187 13.8028 18.1133 13.7759L18.0139 13.77H15.8869L13.7062 9.99299L13.4785 9.59541L13.4766 9.5984ZM6.56768 13.763C6.46087 13.7633 6.35516 13.7846 6.25661 13.8258C6.15806 13.8669 6.0686 13.9271 5.99335 14.003C5.9181 14.0788 5.85855 14.1687 5.8181 14.2675C5.77765 14.3664 5.75709 14.4722 5.75762 14.579C5.75762 14.9905 6.06375 15.3384 6.47226 15.3911L6.57165 15.396H14.0063C14.0886 15.2308 14.13 15.0483 14.1271 14.8637C14.1241 14.6792 14.0769 14.498 13.9894 14.3355C13.915 14.1833 13.8041 14.0518 13.6666 13.9528C13.5291 13.8537 13.3692 13.7903 13.2012 13.768L13.081 13.762H10.5454L14.052 7.69003C14.16 7.50181 14.1893 7.27854 14.1335 7.06882C14.0938 6.92165 14.0139 6.78847 13.9026 6.68429C13.7913 6.5801 13.6532 6.50903 13.5037 6.47907C13.3543 6.44912 13.1994 6.46147 13.0566 6.51474C12.9138 6.568 12.7887 6.66007 12.6953 6.78058L12.6337 6.87202L12.2729 7.50218L11.9161 6.87202C11.8109 6.69484 11.643 6.56362 11.4457 6.50434C11.2484 6.44507 11.036 6.46207 10.8506 6.55197C10.6659 6.64346 10.5225 6.80113 10.4488 6.9936C10.3751 7.18607 10.3766 7.39923 10.453 7.59064L10.5017 7.69003L11.3267 9.14118L8.65793 13.763H6.56768Z" fill="white"/>
</svg>
