<svg width="27" height="24" viewBox="0 0 27 24" fill="none" xmlns="http://www.w3.org/2000/svg">
<path d="M14.7499 11.6724L17.9757 8.81316L7.55648 3.62261C6.86593 3.29192 6.21902 3.24551 5.65175 3.60714L14.7499 11.6724ZM18.5256 15.02L21.879 13.3481C22.5336 13.0232 22.8925 12.563 22.8925 12.0524C22.8925 11.5428 22.5336 11.0816 21.8801 10.7567L18.8441 9.24538L15.4263 12.2738L18.5256 15.02V15.02ZM5.09102 4.31011C5.02121 4.5006 4.98193 4.71332 4.98193 4.94636V19.1652C4.98193 19.5336 5.07357 19.8508 5.23939 20.1032L14.0725 12.2729L5.09102 4.31011ZM14.7499 12.8724L5.96593 20.6592C6.13393 20.7162 6.31502 20.7462 6.50593 20.7462C6.8463 20.7462 7.20084 20.6572 7.56193 20.4793L17.6583 15.4541L14.7499 12.8724V12.8724Z" fill="white"/>
</svg>
